<?xml version="1.0" encoding="UTF-8"?>
<svg version="1.1" xmlns="http://www.w3.org/2000/svg" width="156" height="169">
<path d="M0 0 C51.48 0 102.96 0 156 0 C156 55.77 156 111.54 156 169 C104.52 169 53.04 169 0 169 C0 113.23 0 57.46 0 0 Z " fill="#F9F7FD" transform="translate(0,0)"/>
<path d="M0 0 C2.93515973 1.35215224 5.45838192 3.01214228 8 5 C8 3.68 8 2.36 8 1 C9.32 1.33 10.64 1.66 12 2 C12.04970693 6.02014331 12.08586387 10.04016578 12.10986328 14.06054688 C12.1198759 15.4261385 12.13349005 16.79170894 12.15087891 18.15722656 C12.17533573 20.12815912 12.1854572 22.09925284 12.1953125 24.0703125 C12.21102295 25.84559326 12.21102295 25.84559326 12.22705078 27.65673828 C11.94860925 31.75671497 11.32382506 35.48551535 8.5625 38.64453125 C2.0160862 43.53797557 -2.86754407 43.7437044 -11 43 C-13.8028966 41.96138621 -15.57973607 40.80112664 -18 39 C-18 38.01 -18 37.02 -18 36 C-15.05895956 36.42014863 -13.1736222 36.88268771 -10.6875 38.5625 C-7.10547134 40.47846882 -3.93367744 40.6928199 0 40 C3.51406494 38.24296753 5.4401554 36.9924518 7.375 33.5625 C8.01549816 30.93645753 8.15384014 28.6922024 8 26 C7.34 26 6.68 26 6 26 C5.67 26.99 5.34 27.98 5 29 C1.46575288 31.35616475 -0.18644102 31.2981228 -4.375 31.3125 C-6.05722656 31.33763672 -6.05722656 31.33763672 -7.7734375 31.36328125 C-11.99357053 30.8881331 -14.67827617 29.63984647 -17.36328125 26.30859375 C-20.05870168 20.99539875 -21.42187007 15.91198608 -20 10 C-15.01971425 2.0527355 -9.35420508 -1.41897367 0 0 Z M-15 8 C-16.97338848 11.94677697 -16.44290148 16.69839523 -16 21 C-14.37795062 24.3020291 -13.09120239 26.17219129 -10.1875 28.375 C-5.41538971 29.73846008 -1.53061067 29.54906643 2.8125 27.1875 C6.13806673 25.19607718 6.13806673 25.19607718 8 22 C8.65237324 17.62566572 9.03401151 12.98730094 6.94921875 8.98046875 C4.46357645 5.96690243 2.48385568 4.14575716 -1.42578125 3.76171875 C-9.05997005 3.50372043 -9.05997005 3.50372043 -15 8 Z " fill="#9B77E1" transform="translate(65,34)"/>
<path d="M0 0 C1.7265625 1.48828125 1.7265625 1.48828125 3 3 C5.10332891 3.71447643 5.10332891 3.71447643 7 4 C7 2.68 7 1.36 7 0 C7.99 0.33 8.98 0.66 10 1 C10.0992963 5.58978038 10.17166748 10.17892788 10.21972656 14.76953125 C10.23977222 16.32921244 10.26701657 17.88881913 10.30175781 19.44824219 C10.35059126 21.69745314 10.37303815 23.9456659 10.390625 26.1953125 C10.41127014 26.8861795 10.43191528 27.57704651 10.45318604 28.28884888 C10.45549228 33.32868403 9.13899869 36.1135347 6 40 C0.59688955 44.2523648 -5.42843578 43.75857454 -12 43 C-14.74081054 41.98155674 -15.85672462 41.08373995 -18 39 C-18.495 37.515 -18.495 37.515 -19 36 C-16.49600817 36.41733197 -14.37984556 36.79375262 -12.13671875 38.01171875 C-8.23059451 39.81839047 -4.1973521 39.63946693 0 39 C4.11272651 36.34386413 5.24422793 33.79487751 6.3125 29.1875 C6.56013717 27.79482492 6.79568833 26.39968739 7 25 C6.34 25 5.68 25 5 25 C4.67 25.99 4.34 26.98 4 28 C0.07415608 31.53325953 -4.21375734 31.61791648 -9.26953125 31.48828125 C-13.6425203 30.70627319 -16.29607542 28.43705865 -19 25 C-21.57022694 20.7306633 -21.51814186 16.86066408 -21 12 C-19.63926439 7.46421464 -17.85982108 3.8202987 -14.015625 0.87890625 C-9.66087219 -1.01996852 -4.61179266 -0.79857882 0 0 Z M-15 6 C-15.52464844 6.4228125 -16.04929687 6.845625 -16.58984375 7.28125 C-19.04856633 10.27803098 -18.65047019 13.3894339 -18.53125 17.125 C-17.76689375 21.26151619 -16.16471418 23.65623878 -13.203125 26.59375 C-9.24552205 29.11987954 -5.4892194 28.91306157 -1 28 C2.68623011 26.38727433 3.75355 25.369675 6 22 C6.24246783 18.79620876 6.24246783 18.79620876 6.125 15.3125 C6.09792969 13.54326172 6.09792969 13.54326172 6.0703125 11.73828125 C6.04710938 10.83464844 6.02390625 9.93101563 6 9 C5.01 8.67 4.02 8.34 3 8 C1.875 6 1.875 6 1 4 C-0.63930993 2.36069007 -2.49743674 2.78998633 -4.75 2.75 C-9.02019816 2.79264107 -11.60615486 3.22321762 -15 6 Z " fill="#8757DF" transform="translate(105,87)"/>
<path d="M0 0 C0 3 0 3 -1.43252087 4.50905704 C-2.4240414 5.31004401 -2.4240414 5.31004401 -3.43559265 6.12721252 C-8.23838667 10.15610877 -12.6229211 14.5111558 -17.03051758 18.96459961 C-17.89493469 19.83368958 -18.75935181 20.70277954 -19.64996338 21.59820557 C-21.51324603 23.47193442 -23.3756135 25.3465248 -25.2365818 27.22254753 C-28.17900103 30.188212 -31.1264551 33.1488384 -34.07487488 36.10853577 C-42.45232361 44.51927838 -50.82537757 52.93436397 -59.18823242 61.35961914 C-63.81967102 66.02553101 -68.45640978 70.68610623 -73.09916419 75.34075934 C-76.03305338 78.28275311 -78.96024676 81.23120247 -81.88272727 84.18452728 C-84.121261 86.44276642 -86.3695837 88.69122312 -88.61645508 90.94116211 C-89.42531662 91.76238052 -90.23417816 92.58359894 -91.06755066 93.42970276 C-92.1796843 94.53781815 -92.1796843 94.53781815 -93.31428528 95.6683197 C-94.27902629 96.63915701 -94.27902629 96.63915701 -95.26325703 97.6296072 C-97 99 -97 99 -100 99 C-98.39821611 95.01919934 -95.61978084 92.3510829 -92.61987305 89.39282227 C-92.07165894 88.8443161 -91.52344482 88.29580994 -90.95861816 87.73068237 C-89.14768603 85.92114174 -87.32977209 84.1187897 -85.51171875 82.31640625 C-84.24816446 81.05658522 -82.98505332 79.79631958 -81.72236633 78.53562927 C-78.39633532 75.21723072 -75.06434824 71.90487581 -71.7310791 68.59375 C-68.3516485 65.23470781 -64.97779964 61.87007008 -61.60351562 58.50585938 C-56.14518055 53.06509003 -50.68348924 47.62771799 -45.21717834 42.19496155 C-40.94455292 37.94787275 -36.67667758 33.6966202 -32.45068359 29.40307617 C-28.87040881 25.76951706 -25.28108706 22.14504222 -21.68847656 18.52368164 C-20.13990802 16.95991503 -18.59402662 15.39348305 -17.05078125 13.82446289 C-14.81947788 11.55693399 -12.57876802 9.2990892 -10.3359375 7.04296875 C-9.64527191 6.33681931 -8.95460632 5.63066986 -8.24301147 4.90312195 C-7.59869171 4.25857559 -6.95437195 3.61402924 -6.29052734 2.94995117 C-5.72602875 2.37879074 -5.16153015 1.80763031 -4.57992554 1.21916199 C-3 0 -3 0 0 0 Z " fill="#8453E0" transform="translate(130,34)"/>
<path d="M0 0 C0.66 0.99 1.32 1.98 2 3 C-3.93702103 9.00645466 -9.88204498 15.00482243 -15.83752918 20.9929657 C-18.60248671 23.77359594 -21.36457785 26.55695473 -24.12036133 29.34667969 C-26.77869731 32.03755174 -29.4442417 34.72108261 -32.11499596 37.39962769 C-33.13392321 38.4241088 -34.15020117 39.45123174 -35.16379738 40.48098755 C-36.58113458 41.92002072 -38.00871693 43.34894165 -39.43676758 44.77734375 C-40.2472908 45.59452881 -41.05781403 46.41171387 -41.89289856 47.25366211 C-44 49 -44 49 -47 49 C-45.4819272 45.4252101 -43.38425289 43.14188276 -40.64208984 40.41503906 C-39.74130707 39.51440735 -38.84052429 38.61377563 -37.91244507 37.68585205 C-36.92871592 36.71233519 -35.9448775 35.73892875 -34.9609375 34.765625 C-33.95444872 33.76286839 -32.94840211 32.75966778 -31.94277954 31.75604248 C-29.30037853 29.12126187 -26.65202572 26.49254389 -24.00238037 23.86505127 C-21.29743948 21.18060312 -18.59818179 18.49045378 -15.8984375 15.80078125 C-10.60449826 10.52826382 -5.30425717 5.26213943 0 0 Z " fill="#8E55E0" transform="translate(77,84)"/>
<path d="M0 0 C0.94166016 0.2784375 0.94166016 0.2784375 1.90234375 0.5625 C0.91234375 1.325625 -0.07765625 2.08875 -1.09765625 2.875 C-3.98774168 5.77884774 -4.64550613 7.92330587 -4.84765625 12 C-4.54633661 16.79491258 -3.51176755 19.96940827 -0.08203125 23.3828125 C3.68709041 25.62351081 7.6967608 25.34670936 11.90234375 24.5625 C14.26172144 23.56269279 15.71335587 22.75148788 17.52734375 20.9375 C17.98109375 20.48375 18.43484375 20.03 18.90234375 19.5625 C19.56234375 19.5625 20.22234375 19.5625 20.90234375 19.5625 C20.90234375 21.8725 20.90234375 24.1825 20.90234375 26.5625 C20.57234375 25.2425 20.24234375 23.9225 19.90234375 22.5625 C19.24234375 22.5625 18.58234375 22.5625 17.90234375 22.5625 C17.57234375 23.5525 17.24234375 24.5425 16.90234375 25.5625 C12.97649983 29.09575953 8.68858641 29.18041648 3.6328125 29.05078125 C-0.74017655 28.26877319 -3.39373167 25.99955865 -6.09765625 22.5625 C-8.66116228 18.30432724 -8.63750081 14.41292162 -8.09765625 9.5625 C-6.95749005 5.49382472 -5.06985694 -1.05740033 0 0 Z " fill="#8664E8" transform="translate(92.09765625,89.4375)"/>
<path d="M0 0 C4.29 0 8.58 0 13 0 C13 0.33 13 0.66 13 1 C12.24074219 1.03738281 11.48148438 1.07476562 10.69921875 1.11328125 C9.70535156 1.17902344 8.71148437 1.24476562 7.6875 1.3125 C6.70136719 1.37050781 5.71523438 1.42851563 4.69921875 1.48828125 C1.70145133 2.05659895 0.9473895 2.76499605 -1 5 C-1.66 5 -2.32 5 -3 5 C-3.08150744 7.06183633 -3.1394194 9.12461349 -3.1875 11.1875 C-3.23970703 12.91033203 -3.23970703 12.91033203 -3.29296875 14.66796875 C-2.97210567 18.3172515 -2.16435873 20.08644018 0 23 C2.06954847 24.78344178 2.06954847 24.78344178 4 26 C1.8125 26.8125 1.8125 26.8125 -1 27 C-4.61271452 24.14343503 -6.90396481 21.48378032 -8 17 C-8.80129241 8.08562197 -8.80129241 8.08562197 -6.66796875 5.1953125 C-5 4 -5 4 -2 4 C-1.34 2.68 -0.68 1.36 0 0 Z " fill="#9C71F0" transform="translate(53,37)"/>
<path d="M0 0 C-1.58363082 3.83605489 -4.02614122 6.28445649 -6.9375 9.203125 C-7.41823975 9.6857782 -7.89897949 10.1684314 -8.39428711 10.66571045 C-9.40721093 11.67999064 -10.42264638 12.69176804 -11.44042969 13.70117188 C-13.00173165 15.25171972 -14.55202497 16.81270503 -16.1015625 18.375 C-17.08790061 19.36001734 -18.0748585 20.34441453 -19.0625 21.328125 C-19.96097656 22.2243457 -20.85945313 23.12056641 -21.78515625 24.04394531 C-24 26 -24 26 -26 26 C-25.49659644 21.80819725 -23.21481607 19.90889886 -20.25 17.0625 C-19.38890625 16.22847656 -18.5278125 15.39445312 -17.640625 14.53515625 C-16.76921875 13.69855469 -15.8978125 12.86195312 -15 12 C-12.66520319 9.6862374 -10.34710436 7.36623051 -8.0859375 4.98046875 C-7.52132812 4.38878906 -6.95671875 3.79710937 -6.375 3.1875 C-5.80523437 2.58292969 -5.23546875 1.97835937 -4.6484375 1.35546875 C-3 0 -3 0 0 0 Z " fill="#844ED8" transform="translate(104,60)"/>
<path d="M0 0 C1.60488281 -0.03867188 1.60488281 -0.03867188 3.2421875 -0.078125 C6.47123862 0.28940927 7.12841946 0.81802806 9.125 3.25 C11.22832891 3.96447643 11.22832891 3.96447643 13.125 4.25 C13.125 2.93 13.125 1.61 13.125 0.25 C13.785 0.58 14.445 0.91 15.125 1.25 C15.125 4.55 15.125 7.85 15.125 11.25 C14.795 11.25 14.465 11.25 14.125 11.25 C13.795 14.55 13.465 17.85 13.125 21.25 C12.795 21.25 12.465 21.25 12.125 21.25 C12.11082031 20.44175781 12.09664062 19.63351563 12.08203125 18.80078125 C11.86677919 13.97797162 11.68818151 10.25984271 9.3125 6 C4.404777 3.30556384 -0.39743951 3.85687365 -5.875 4.25 C-6.205 3.26 -6.535 2.27 -6.875 1.25 C-5.07228218 -0.55271782 -2.43091251 0.03497716 0 0 Z " fill="#9776F4" transform="translate(98.875,86.75)"/>
<path d="M0 0 C2.94104044 0.42014863 4.8263778 0.88268771 7.3125 2.5625 C10.87801583 4.46963637 14.08122637 4.72996764 18 4 C21.27310553 2.09643013 21.27310553 2.09643013 24 0 C24.99 0 25.98 0 27 0 C25.52979121 3.87600498 23.67792124 5.18399451 20 7 C12.37727627 8.07104093 6.21997694 7.62882005 0 3 C0 2.01 0 1.02 0 0 Z " fill="#7C45D8" transform="translate(47,70)"/>
<path d="M0 0 C-2.09368056 4.65205762 -5.36183429 7.69241146 -8.9375 11.25 C-9.57107422 11.8996875 -10.20464844 12.549375 -10.85742188 13.21875 C-11.47037109 13.83234375 -12.08332031 14.4459375 -12.71484375 15.078125 C-13.27292725 15.63918945 -13.83101074 16.20025391 -14.40600586 16.77832031 C-16 18 -16 18 -19 18 C-16.90631944 13.34794238 -13.63816571 10.30758854 -10.0625 6.75 C-9.42892578 6.1003125 -8.79535156 5.450625 -8.14257812 4.78125 C-7.52962891 4.16765625 -6.91667969 3.5540625 -6.28515625 2.921875 C-5.72707275 2.36081055 -5.16898926 1.79974609 -4.59399414 1.22167969 C-3 0 -3 0 0 0 Z " fill="#9465E7" transform="translate(49,115)"/>
<path d="M0 0 C3.125 1.375 3.125 1.375 5 3 C5 3.66 5 4.32 5 5 C3.68 5 2.36 5 1 5 C1 4.34 1 3.68 1 3 C-1.08412907 3.06023494 -3.16744435 3.14908321 -5.25 3.25 C-6.99023438 3.31960937 -6.99023438 3.31960937 -8.765625 3.390625 C-12.46661382 4.08791275 -13.67122429 5.11785184 -16 8 C-16 5 -16 5 -13.625 2.3125 C-9.46285098 -0.95987844 -5.06338554 -0.79194383 0 0 Z " fill="#865EEB" transform="translate(65,34)"/>
<path d="M0 0 C2.48527616 0.41421269 4.5934637 0.77570411 6.8125 2 C9.06153698 3.02813119 10.62193376 3.21927419 13.0625 3.4375 C17.06497487 4.00928212 17.57068792 4.1620186 20 7 C7.11077482 7.68844526 7.11077482 7.68844526 3.25 5.1875 C1 3 1 3 0 0 Z " fill="#9369F5" transform="translate(86,123)"/>
<path d="M0 0 C0.33 0.99 0.66 1.98 1 3 C-1.04074305 6.57130033 -2.55753136 8.7050209 -6 11 C-8.69921875 11.1953125 -8.69921875 11.1953125 -11.6875 11.125 C-13.17830078 11.09792969 -13.17830078 11.09792969 -14.69921875 11.0703125 C-15.45847656 11.04710937 -16.21773438 11.02390625 -17 11 C-17 10.67 -17 10.34 -17 10 C-15.783125 9.773125 -14.56625 9.54625 -13.3125 9.3125 C-9.02156987 8.25685524 -6.88227437 6.39091103 -4 3 C-3.34 2.34 -2.68 1.68 -2 1 C-1.34 1.33 -0.68 1.66 0 2 C0 1.34 0 0.68 0 0 Z " fill="#9266EE" transform="translate(114,118)"/>
<path d="M0 0 C0.33 0 0.66 0 1 0 C1 1.98 1 3.96 1 6 C0.34 6 -0.32 6 -1 6 C-1.268125 6.78375 -1.53625 7.5675 -1.8125 8.375 C-3 11 -3 11 -6 13 C-9.13671875 13.1953125 -9.13671875 13.1953125 -12.6875 13.125 C-13.86699219 13.10695313 -15.04648437 13.08890625 -16.26171875 13.0703125 C-17.16535156 13.04710938 -18.06898437 13.02390625 -19 13 C-19 12.34 -19 11.68 -19 11 C-18.11957031 10.91363281 -17.23914062 10.82726563 -16.33203125 10.73828125 C-8.95489394 10.15926798 -8.95489394 10.15926798 -2.75 6.625 C-1.1979571 4.29693565 -0.30657036 2.75913324 0 0 Z " fill="#7C4ED0" transform="translate(73,52)"/>
<path d="M0 0 C0.33 0 0.66 0 1 0 C1.97299156 4.85729645 2.12038805 9.4500625 2.0625 14.375 C2.05798828 15.11105469 2.05347656 15.84710938 2.04882812 16.60546875 C2.03715142 18.40368158 2.01922011 20.20185197 2 22 C1.67 22 1.34 22 1 22 C0.85304688 20.80503906 0.85304688 20.80503906 0.703125 19.5859375 C-0.17364593 13.37295727 -0.94805192 8.86233769 -5 4 C-4.01 3.67 -3.02 3.34 -2 3 C-1.34 3.33 -0.68 3.66 0 4 C0 2.68 0 1.36 0 0 Z " fill="#9E5FF0" transform="translate(73,35)"/>
<path d="M0 0 C0.94166016 0.2784375 0.94166016 0.2784375 1.90234375 0.5625 C0.95359375 1.305 0.00484375 2.0475 -0.97265625 2.8125 C-5.39776646 7.1332444 -5.54368442 12.65983466 -6.09765625 18.5625 C-6.75765625 18.5625 -7.41765625 18.5625 -8.09765625 18.5625 C-8.53200089 11.46820429 -7.91000483 6.4753328 -3.66015625 0.5625 C-2.09765625 -0.4375 -2.09765625 -0.4375 0 0 Z " fill="#8245D9" transform="translate(92.09765625,89.4375)"/>
<path d="M0 0 C0.66 0.33 1.32 0.66 2 1 C2 4.3 2 7.6 2 11 C1.67 11 1.34 11 1 11 C0.67 14.3 0.34 17.6 0 21 C-0.33 21 -0.66 21 -1 21 C-1.04898438 20.14535156 -1.09796875 19.29070312 -1.1484375 18.41015625 C-1.26058594 16.75306641 -1.26058594 16.75306641 -1.375 15.0625 C-1.44460937 13.96035156 -1.51421875 12.85820313 -1.5859375 11.72265625 C-1.72257812 10.82417969 -1.85921875 9.92570312 -2 9 C-2.66 8.67 -3.32 8.34 -4 8 C-3.67 6.68 -3.34 5.36 -3 4 C-2.01 4 -1.02 4 0 4 C0 2.68 0 1.36 0 0 Z " fill="#A37CF0" transform="translate(112,87)"/>
<path d="M0 0 C0.99 0 1.98 0 3 0 C3 2.31 3 4.62 3 7 C2.67 5.68 2.34 4.36 2 3 C1.34 3 0.68 3 0 3 C-0.33 3.99 -0.66 4.98 -1 6 C-4.16775095 8.21171801 -6.50137877 8.11823964 -10.25 7.625 C-11.14203125 7.51414062 -12.0340625 7.40328125 -12.953125 7.2890625 C-13.96632813 7.14597656 -13.96632813 7.14597656 -15 7 C-15 6.67 -15 6.34 -15 6 C-14.09507813 5.92652344 -14.09507813 5.92652344 -13.171875 5.8515625 C-12.37265625 5.77679688 -11.5734375 5.70203125 -10.75 5.625 C-9.96109375 5.55539063 -9.1721875 5.48578125 -8.359375 5.4140625 C-5.85277404 4.97416233 -4.15177354 4.35175517 -2 3 C-1.34 2.01 -0.68 1.02 0 0 Z " fill="#9B70E6" transform="translate(110,109)"/>
<path d="M0 0 C3.94876098 0.56410871 6.75634176 1.65735794 10 4 C10.33 4.99 10.66 5.98 11 7 C6.65840504 6.49516338 3.50591348 5.68099266 0 3 C0 2.01 0 1.02 0 0 Z " fill="#8E69F2" transform="translate(47,70)"/>
<path d="M0 0 C0 0.99 0 1.98 0 3 C-1.6796875 4.421875 -1.6796875 4.421875 -3.875 5.75 C-4.59429687 6.19859375 -5.31359375 6.6471875 -6.0546875 7.109375 C-6.69664063 7.40328125 -7.33859375 7.6971875 -8 8 C-8.66 7.67 -9.32 7.34 -10 7 C-8.90536178 5.82438854 -7.79892814 4.6597511 -6.6875 3.5 C-6.07261719 2.8503125 -5.45773438 2.200625 -4.82421875 1.53125 C-3 0 -3 0 0 0 Z " fill="#8E5FE3" transform="translate(130,34)"/>
<path d="M0 0 C0.33 0 0.66 0 1 0 C1 3.3 1 6.6 1 10 C0.01 10.495 0.01 10.495 -1 11 C-1.66 10.34 -2.32 9.68 -3 9 C-2.01 6.03 -1.02 3.06 0 0 Z " fill="#8958D8" transform="translate(75,60)"/>
<path d="M0 0 C9.17286652 -0.63019694 9.17286652 -0.63019694 12.625 2 C13.07875 2.66 13.5325 3.32 14 4 C13.67 4.66 13.34 5.32 13 6 C12.154375 5.360625 11.30875 4.72125 10.4375 4.0625 C7.09271435 1.8033727 4.02603008 1.32208241 0 1 C0 0.67 0 0.34 0 0 Z " fill="#7755EC" transform="translate(96,88)"/>
<path d="M0 0 C0 0.99 0 1.98 0 3 C-1 4 -1 4 -3.50390625 4.09765625 C-5.01791016 4.08025391 -5.01791016 4.08025391 -6.5625 4.0625 C-7.57441406 4.05347656 -8.58632812 4.04445312 -9.62890625 4.03515625 C-10.41136719 4.02355469 -11.19382812 4.01195312 -12 4 C-12 3.67 -12 3.34 -12 3 C-8.04 2.01 -4.08 1.02 0 0 Z " fill="#8353EA" transform="translate(109,125)"/>
<path d="M0 0 C0.66 0 1.32 0 2 0 C2.125 3.375 2.125 3.375 2 7 C1.34 7.66 0.68 8.32 0 9 C0 7.35 0 5.7 0 4 C-1.32 4.33 -2.64 4.66 -4 5 C-2.71937515 3.2925002 -1.38232443 1.62626404 0 0 Z " fill="#D8BFF6" transform="translate(110,112)"/>
<path d="M0 0 C2.91517292 1.07401108 4.77810176 1.77810176 7 4 C4.6875 4.625 4.6875 4.625 2 5 C1.01 4.34 0.02 3.68 -1 3 C-0.67 2.01 -0.34 1.02 0 0 Z " fill="#8E65EC" transform="translate(50,59)"/>
<path d="M0 0 C0.33 0 0.66 0 1 0 C1 2.31 1 4.62 1 7 C0.01 7.33 -0.98 7.66 -2 8 C-2.99 6.68 -3.98 5.36 -5 4 C-4.01 3.67 -3.02 3.34 -2 3 C-1.34 3.33 -0.68 3.66 0 4 C0 2.68 0 1.36 0 0 Z " fill="#A170F0" transform="translate(73,35)"/>
<path d="M0 0 C-0.33 3.3 -0.66 6.6 -1 10 C-1.33 10 -1.66 10 -2 10 C-2 8.02 -2 6.04 -2 4 C-2.66 3.67 -3.32 3.34 -4 3 C-1.125 0 -1.125 0 0 0 Z " fill="#D4B4F6" transform="translate(74,59)"/>
<path d="M0 0 C2.475 0.495 2.475 0.495 5 1 C5.33 1.99 5.66 2.98 6 4 C3.03 3.505 3.03 3.505 0 3 C0 2.01 0 1.02 0 0 Z " fill="#8951EE" transform="translate(52,73)"/>
</svg>
